<svg version="1.1" id="Layer_1" xmlns="http://www.w3.org/2000/svg" xmlns:xlink="http://www.w3.org/1999/xlink" x="0px" y="0px"
	 width="100%" viewBox="0 0 1280 1280" enable-background="new 0 0 1280 1280" xml:space="preserve">
<path fill="#010001" opacity="1.000000" stroke="none" 
	d="
M682.000000,1281.000000 
	C454.666656,1281.000000 227.833328,1281.000000 1.000000,1281.000000 
	C1.000000,854.333313 1.000000,427.666656 1.000000,1.000000 
	C427.666656,1.000000 854.333313,1.000000 1281.000000,1.000000 
	C1281.000000,427.666656 1281.000000,854.333313 1281.000000,1281.000000 
	C1081.500000,1281.000000 882.000000,1281.000000 682.000000,1281.000000 
M640.147156,417.193268 
	C637.667358,415.612000 635.184204,414.036041 632.708374,412.448700 
	C592.126892,386.430145 551.558899,360.390503 510.962494,334.395233 
	C453.041840,297.306610 395.076538,260.287628 337.175598,223.168243 
	C291.360382,193.796844 245.620605,164.307785 199.832977,134.893341 
	C177.042404,120.252441 154.218399,105.663582 131.411774,91.047653 
	C117.911514,82.395821 104.415657,73.737083 90.031746,64.513245 
	C90.031746,67.867546 90.031174,70.294373 90.031830,72.721199 
	C90.046959,128.705765 90.413933,184.694321 89.777878,240.671478 
	C89.652107,251.740051 92.691521,257.955017 102.249634,263.887268 
	C145.467621,290.710480 188.095016,318.485291 230.933395,345.920044 
	C253.190521,360.174042 275.447388,374.428497 297.698700,388.691559 
	C364.433929,431.468750 431.171875,474.241669 497.897797,517.033447 
	C538.596130,543.133484 579.255493,569.294250 619.979553,595.354126 
	C626.890015,599.776306 634.039062,603.825623 641.775574,607.987610 
	C644.062378,606.622559 646.391113,605.322693 648.629639,603.882751 
	C683.902405,581.192932 719.133484,558.438171 754.435242,535.793579 
	C796.885620,508.563446 839.408020,481.445557 881.873413,454.238678 
	C929.109741,423.975159 976.316162,393.664886 1023.539490,363.380981 
	C1025.811890,361.923706 1028.120361,360.522736 1031.482910,358.428619 
	C1031.482910,450.696167 1031.482910,541.709839 1031.482910,633.385620 
	C1033.180420,632.493286 1034.064697,632.108032 1034.867188,631.594604 
	C1048.459351,622.896423 1062.040283,614.180786 1075.625854,605.472168 
	C1112.629883,581.751709 1149.593628,557.967834 1186.704712,534.416077 
	C1190.334961,532.112183 1191.441162,529.668518 1191.438965,525.578918 
	C1191.359985,375.102478 1191.385498,224.626007 1191.396729,74.149521 
	C1191.396851,71.560577 1191.396729,68.971642 1191.396729,65.299248 
	C1188.767944,66.738159 1187.171509,67.493118 1185.696289,68.437393 
	C1165.644653,81.271614 1145.615356,94.140884 1125.569580,106.984390 
	C1073.997437,140.027176 1022.395752,173.023911 970.851624,206.110336 
	C925.334656,235.327942 879.904297,264.680603 834.390442,293.902924 
	C781.583496,327.807739 728.739807,361.655304 675.882324,395.481171 
	C664.256104,402.921326 652.504456,410.165466 640.147156,417.193268 
M641.581726,1158.401489 
	C644.549866,1156.579346 647.547913,1154.803955 650.481567,1152.927856 
	C684.509521,1131.165161 718.551392,1109.424194 752.542175,1087.603638 
	C787.580322,1065.110718 822.536499,1042.490112 857.582581,1020.009644 
	C901.643433,991.746582 945.764587,963.577576 989.848022,935.349731 
	C1003.360718,926.697144 1016.835205,917.985046 1031.197388,908.739990 
	C1031.197388,1012.029846 1031.197388,1114.388550 1031.197388,1216.875488 
	C1084.883057,1216.875488 1137.933960,1216.875488 1191.044678,1216.875488 
	C1191.044678,1017.269897 1191.044678,818.075745 1191.044678,618.238281 
	C1189.090210,619.386597 1187.670776,620.156067 1186.315918,621.026062 
	C1148.299194,645.437744 1110.302856,669.881104 1072.273560,694.273132 
	C1039.812988,715.093506 1007.303528,735.838013 974.837708,756.650452 
	C940.005493,778.979980 905.203979,801.357361 870.380188,823.700012 
	C824.933716,852.858032 779.489563,882.019714 734.023193,911.146667 
	C703.097778,930.958313 672.135864,950.713013 640.471497,970.250732 
	C639.442139,969.706482 638.367249,969.233337 637.389954,968.607666 
	C584.539795,934.771423 531.682739,900.945862 478.859619,867.067383 
	C436.410950,839.842468 394.006409,812.548767 351.576233,785.294983 
	C346.751923,782.196289 341.888123,779.159058 336.461456,775.725586 
	C336.250092,777.820923 336.040985,778.928528 336.040649,780.036133 
	C336.022675,839.861694 335.990356,899.687378 336.157196,959.512512 
	C336.162811,961.535950 337.667328,964.362976 339.354126,965.455933 
	C381.533813,992.788208 423.812378,1019.968079 466.114227,1047.111328 
	C518.232544,1080.553467 570.374817,1113.958374 622.544434,1147.320435 
	C628.518250,1151.140625 634.734192,1154.582153 641.581726,1158.401489 
M639.415039,692.759766 
	C638.049683,691.824341 636.707764,690.852478 635.315674,689.958740 
	C581.242920,655.241882 527.226135,620.437378 473.071381,585.848938 
	C422.275818,553.406067 371.315247,521.221802 320.463348,488.866943 
	C292.730988,471.221985 265.063629,453.474762 237.384644,435.745972 
	C195.419983,408.866974 153.474075,381.958679 111.511726,355.076019 
	C104.611420,350.655457 97.667648,346.302704 90.307358,341.642120 
	C90.307358,633.871033 90.307358,925.246887 90.307358,1216.966553 
	C143.930023,1216.966553 197.296646,1216.966553 251.237869,1216.966553 
	C251.237869,1022.989319 251.237869,829.340820 251.237869,634.960632 
	C253.266968,636.016602 254.610718,636.588135 255.822479,637.365356 
	C283.199341,654.924438 310.562775,672.504333 337.926544,690.083740 
	C375.925110,714.495178 413.914886,738.920288 451.921539,763.319153 
	C484.460510,784.207947 517.025330,805.056274 549.565125,825.943787 
	C579.323120,845.045654 609.058594,864.182556 638.841553,883.245483 
	C639.425293,883.619202 640.471008,883.271057 642.010498,883.315979 
	C643.894348,882.267944 645.842529,881.320068 647.652588,880.157227 
	C696.361511,848.867188 745.030151,817.514343 793.760681,786.258057 
	C843.055847,754.639526 892.385437,723.074158 941.791504,691.629456 
	C945.205994,689.456238 946.372803,687.115845 946.365723,683.184082 
	C946.257690,623.523682 946.293335,563.863098 946.277771,504.202515 
	C946.277344,502.488312 946.084473,500.774200 945.928406,498.180054 
	C942.851440,499.996490 940.552917,501.252563 938.355408,502.665833 
	C906.474304,523.169678 874.631165,543.732605 842.730896,564.206604 
	C778.191833,605.628723 713.629700,647.014893 649.047058,688.368896 
	C646.168335,690.212341 642.993225,691.592896 639.415039,692.759766 
z"/>
<path fill="#6EB9B5" opacity="1.000000" stroke="none" 
	d="
M641.301208,883.259644 
	C640.471008,883.271057 639.425293,883.619202 638.841553,883.245483 
	C609.058594,864.182556 579.323120,845.045654 549.565125,825.943787 
	C517.025330,805.056274 484.460510,784.207947 451.921539,763.319153 
	C413.914886,738.920288 375.925110,714.495178 337.926544,690.083740 
	C310.562775,672.504333 283.199341,654.924438 255.822479,637.365356 
	C254.610718,636.588135 253.266968,636.016602 251.237869,634.960632 
	C251.237869,829.340820 251.237869,1022.989319 251.237869,1216.966553 
	C197.296646,1216.966553 143.930023,1216.966553 90.307358,1216.966553 
	C90.307358,925.246887 90.307358,633.871033 90.307358,341.642120 
	C97.667648,346.302704 104.611420,350.655457 111.511726,355.076019 
	C153.474075,381.958679 195.419983,408.866974 237.384644,435.745972 
	C265.063629,453.474762 292.730988,471.221985 320.463348,488.866943 
	C371.315247,521.221802 422.275818,553.406067 473.071381,585.848938 
	C527.226135,620.437378 581.242920,655.241882 635.315674,689.958740 
	C636.707764,690.852478 638.049683,691.824341 639.820190,693.357666 
	C640.478394,696.248718 640.950867,698.541687 640.952454,700.835083 
	C640.992188,757.983337 640.976318,815.131592 640.994751,872.279846 
	C640.995972,875.939758 641.194458,879.599731 641.301208,883.259644 
z"/>
<path fill="#AC76B2" opacity="1.000000" stroke="none" 
	d="
M641.190308,970.493225 
	C672.135864,950.713013 703.097778,930.958313 734.023193,911.146667 
	C779.489563,882.019714 824.933716,852.858032 870.380188,823.700012 
	C905.203979,801.357361 940.005493,778.979980 974.837708,756.650452 
	C1007.303528,735.838013 1039.812988,715.093506 1072.273560,694.273132 
	C1110.302856,669.881104 1148.299194,645.437744 1186.315918,621.026062 
	C1187.670776,620.156067 1189.090210,619.386597 1191.044678,618.238281 
	C1191.044678,818.075745 1191.044678,1017.269897 1191.044678,1216.875488 
	C1137.933960,1216.875488 1084.883057,1216.875488 1031.197388,1216.875488 
	C1031.197388,1114.388550 1031.197388,1012.029846 1031.197388,908.739990 
	C1016.835205,917.985046 1003.360718,926.697144 989.848022,935.349731 
	C945.764587,963.577576 901.643433,991.746582 857.582581,1020.009644 
	C822.536499,1042.490112 787.580322,1065.110718 752.542175,1087.603638 
	C718.551392,1109.424194 684.509521,1131.165161 650.481567,1152.927856 
	C647.547913,1154.803955 644.549866,1156.579346 641.254395,1157.820312 
	C640.940125,1097.651001 640.950195,1038.062622 640.975464,978.474304 
	C640.976624,975.813965 641.115601,973.153564 641.190308,970.493225 
z"/>
<path fill="#78477F" opacity="1.000000" stroke="none" 
	d="
M640.810547,417.499878 
	C652.504456,410.165466 664.256104,402.921326 675.882324,395.481171 
	C728.739807,361.655304 781.583496,327.807739 834.390442,293.902924 
	C879.904297,264.680603 925.334656,235.327942 970.851624,206.110336 
	C1022.395752,173.023911 1073.997437,140.027176 1125.569580,106.984390 
	C1145.615356,94.140884 1165.644653,81.271614 1185.696289,68.437393 
	C1187.171509,67.493118 1188.767944,66.738159 1191.396729,65.299248 
	C1191.396729,68.971642 1191.396851,71.560577 1191.396729,74.149521 
	C1191.385498,224.626007 1191.359985,375.102478 1191.438965,525.578918 
	C1191.441162,529.668518 1190.334961,532.112183 1186.704712,534.416077 
	C1149.593628,557.967834 1112.629883,581.751709 1075.625854,605.472168 
	C1062.040283,614.180786 1048.459351,622.896423 1034.867188,631.594604 
	C1034.064697,632.108032 1033.180420,632.493286 1031.482910,633.385620 
	C1031.482910,541.709839 1031.482910,450.696167 1031.482910,358.428619 
	C1028.120361,360.522736 1025.811890,361.923706 1023.539490,363.380981 
	C976.316162,393.664886 929.109741,423.975159 881.873413,454.238678 
	C839.408020,481.445557 796.885620,508.563446 754.435242,535.793579 
	C719.133484,558.438171 683.902405,581.192932 648.629639,603.882751 
	C646.391113,605.322693 644.062378,606.622559 641.378845,607.548828 
	C640.978088,562.367615 640.988770,517.625122 640.963013,472.882599 
	C640.952454,454.421661 640.863770,435.960785 640.810547,417.499878 
z"/>
<path fill="#AB76B1" opacity="1.000000" stroke="none" 
	d="
M640.478882,417.346558 
	C640.863770,435.960785 640.952454,454.421661 640.963013,472.882599 
	C640.988770,517.625122 640.978088,562.367615 641.030029,607.578613 
	C634.039062,603.825623 626.890015,599.776306 619.979553,595.354126 
	C579.255493,569.294250 538.596130,543.133484 497.897797,517.033447 
	C431.171875,474.241669 364.433929,431.468750 297.698700,388.691559 
	C275.447388,374.428497 253.190521,360.174042 230.933395,345.920044 
	C188.095016,318.485291 145.467621,290.710480 102.249634,263.887268 
	C92.691521,257.955017 89.652107,251.740051 89.777878,240.671478 
	C90.413933,184.694321 90.046959,128.705765 90.031830,72.721199 
	C90.031174,70.294373 90.031746,67.867546 90.031746,64.513245 
	C104.415657,73.737083 117.911514,82.395821 131.411774,91.047653 
	C154.218399,105.663582 177.042404,120.252441 199.832977,134.893341 
	C245.620605,164.307785 291.360382,193.796844 337.175598,223.168243 
	C395.076538,260.287628 453.041840,297.306610 510.962494,334.395233 
	C551.558899,360.390503 592.126892,386.430145 632.708374,412.448700 
	C635.184204,414.036041 637.667358,415.612000 640.478882,417.346558 
z"/>
<path fill="#4A9787" opacity="1.000000" stroke="none" 
	d="
M641.655884,883.287842 
	C641.194458,879.599731 640.995972,875.939758 640.994751,872.279846 
	C640.976318,815.131592 640.992188,757.983337 640.952454,700.835083 
	C640.950867,698.541687 640.478394,696.248718 640.090698,693.572266 
	C642.993225,691.592896 646.168335,690.212341 649.047058,688.368896 
	C713.629700,647.014893 778.191833,605.628723 842.730896,564.206604 
	C874.631165,543.732605 906.474304,523.169678 938.355408,502.665833 
	C940.552917,501.252563 942.851440,499.996490 945.928406,498.180054 
	C946.084473,500.774200 946.277344,502.488312 946.277771,504.202515 
	C946.293335,563.863098 946.257690,623.523682 946.365723,683.184082 
	C946.372803,687.115845 945.205994,689.456238 941.791504,691.629456 
	C892.385437,723.074158 843.055847,754.639526 793.760681,786.258057 
	C745.030151,817.514343 696.361511,848.867188 647.652588,880.157227 
	C645.842529,881.320068 643.894348,882.267944 641.655884,883.287842 
z"/>
<path fill="#78477F" opacity="1.000000" stroke="none" 
	d="
M640.830933,970.371948 
	C641.115601,973.153564 640.976624,975.813965 640.975464,978.474304 
	C640.950195,1038.062622 640.940125,1097.651001 640.882446,1157.719238 
	C634.734192,1154.582153 628.518250,1151.140625 622.544434,1147.320435 
	C570.374817,1113.958374 518.232544,1080.553467 466.114227,1047.111328 
	C423.812378,1019.968079 381.533813,992.788208 339.354126,965.455933 
	C337.667328,964.362976 336.162811,961.535950 336.157196,959.512512 
	C335.990356,899.687378 336.022675,839.861694 336.040649,780.036133 
	C336.040985,778.928528 336.250092,777.820923 336.461456,775.725586 
	C341.888123,779.159058 346.751923,782.196289 351.576233,785.294983 
	C394.006409,812.548767 436.410950,839.842468 478.859619,867.067383 
	C531.682739,900.945862 584.539795,934.771423 637.389954,968.607666 
	C638.367249,969.233337 639.442139,969.706482 640.830933,970.371948 
z"/>
</svg>