<?xml version="1.0" standalone="no"?>
<!DOCTYPE svg PUBLIC "-//W3C//DTD SVG 20010904//EN"
 "http://www.w3.org/TR/2001/REC-SVG-20010904/DTD/svg10.dtd">
<svg version="1.0" xmlns="http://www.w3.org/2000/svg"
 width="1280.000000pt" height="1280.000000pt" viewBox="0 0 1280.000000 1280.000000"
 preserveAspectRatio="xMidYMid meet">

<g transform="translate(0.000000,1280.000000) scale(0.100000,-0.100000)"
fill="#000000" stroke="none">
<path d="M0 6400 l0 -6400 6400 0 6400 0 0 6400 0 6400 -6400 0 -6400 0 0
-6400z m939 5726 c29 -18 38 -31 36 -48 -1 -13 0 -15 2 -5 2 9 9 17 14 17 5 0
9 -8 9 -17 0 -14 2 -15 9 -4 7 11 13 10 32 -8 12 -11 27 -21 32 -21 5 0 3 -8
-4 -17 -13 -17 -13 -17 5 -3 15 12 20 12 23 2 3 -6 8 -10 12 -8 4 3 23 -8 42
-25 19 -16 42 -32 52 -35 9 -3 14 -10 11 -16 -4 -7 -2 -8 5 -4 6 4 18 2 27 -4
8 -7 27 -20 43 -29 32 -18 106 -66 263 -169 61 -40 124 -80 139 -88 40 -20 81
-63 73 -76 -4 -7 -2 -8 5 -4 6 4 8 12 4 19 -3 6 9 1 28 -11 19 -12 58 -36 87
-53 30 -18 56 -38 59 -45 3 -8 8 -12 12 -10 3 3 32 -13 63 -35 32 -21 60 -39
63 -39 8 0 129 -83 137 -95 4 -5 8 -7 8 -2 0 4 11 0 25 -9 21 -14 23 -19 13
-33 -12 -14 -11 -14 5 -2 15 12 22 10 60 -15 23 -16 44 -32 45 -36 2 -5 10 -8
17 -8 7 0 26 -12 43 -27 17 -16 36 -29 44 -31 23 -6 88 -54 83 -63 -3 -4 0
-11 6 -15 8 -4 9 -3 5 4 -4 7 -4 12 -1 12 13 0 65 -34 65 -42 0 -4 6 -8 13 -8
8 0 38 -17 68 -37 30 -21 83 -56 119 -77 134 -82 215 -138 212 -147 -1 -6 2
-8 8 -4 12 7 166 -93 162 -106 -1 -5 1 -8 5 -7 15 4 53 -14 53 -24 0 -6 3 -8
6 -5 11 11 45 -13 38 -26 -4 -7 -4 -9 1 -5 9 8 35 -6 163 -89 45 -30 82 -58
82 -64 0 -6 4 -8 9 -5 8 6 103 -52 109 -66 2 -5 9 -8 15 -8 7 0 24 -11 39 -24
14 -14 29 -22 32 -19 3 4 6 2 6 -4 0 -5 -3 -13 -7 -17 -4 -3 -8 -13 -9 -22 -2
-11 1 -12 10 -5 7 6 17 7 22 3 4 -4 2 1 -5 11 -11 14 -11 17 2 17 22 0 31 -18
18 -34 -8 -9 -7 -13 4 -13 7 0 14 3 13 6 0 3 0 9 1 13 1 7 160 -89 201 -122
14 -11 31 -20 38 -20 6 0 12 -5 12 -11 0 -5 5 -7 12 -3 7 5 9 2 5 -9 -4 -10
-2 -14 6 -11 11 4 133 -69 252 -152 22 -16 57 -37 77 -47 21 -11 35 -23 32
-28 -3 -5 -2 -8 3 -7 8 2 103 -50 113 -62 3 -4 24 -17 48 -30 23 -13 42 -27
42 -32 0 -4 7 -8 15 -8 8 0 15 -5 15 -11 0 -6 -7 -8 -16 -5 -9 3 -12 2 -9 -5
4 -5 15 -7 24 -4 16 5 85 -30 151 -78 14 -10 68 -45 119 -78 52 -32 97 -63
100 -67 4 -4 18 -13 33 -19 20 -9 26 -17 22 -30 -5 -14 -4 -15 4 -4 8 12 15
11 38 -6 16 -11 37 -23 47 -26 11 -4 15 -12 11 -18 -4 -8 -3 -9 4 -5 13 8 54
-23 46 -35 -2 -4 4 -6 15 -4 10 2 28 -5 40 -16 12 -11 21 -18 21 -15 0 5 124
-73 145 -91 6 -5 27 -19 48 -32 30 -18 36 -26 25 -33 -9 -6 -5 -7 11 -3 16 5
21 4 17 -4 -4 -6 -2 -9 6 -6 7 3 22 -2 33 -10 11 -9 56 -38 99 -65 44 -27 83
-55 88 -62 4 -7 8 -10 8 -5 0 4 11 0 25 -9 14 -9 22 -21 18 -27 -3 -5 -1 -7 5
-3 12 7 82 -31 82 -45 0 -5 3 -8 8 -6 14 4 112 -65 105 -76 -4 -6 -1 -7 6 -3
7 5 29 -4 53 -20 22 -16 50 -33 62 -39 11 -7 20 -17 19 -23 -2 -6 3 -9 10 -7
14 6 100 -48 92 -57 -3 -3 1 -8 10 -12 11 -4 14 -2 9 7 -5 6 8 0 27 -14 l34
-27 2 -938 c1 -516 -1 -942 -4 -947 -3 -5 -8 -5 -12 0 -3 4 -37 28 -74 52 -50
33 -65 47 -55 53 9 7 8 8 -5 4 -19 -6 -67 12 -67 26 0 4 -6 8 -14 8 -8 0 -16
4 -18 8 -4 11 -114 83 -152 99 -28 13 -29 14 -10 29 18 14 18 15 -3 4 -33 -15
-75 13 -69 46 4 21 2 23 -15 14 -24 -13 -25 -21 -1 -13 13 5 15 3 5 -7 -9 -10
-17 -8 -40 9 -15 13 -77 54 -136 92 -60 38 -106 73 -103 78 4 5 -2 7 -12 4
-10 -2 -24 3 -31 11 -8 9 -19 16 -26 16 -7 0 -15 7 -19 15 -3 8 -11 15 -19 15
-20 0 -78 46 -69 55 4 5 2 5 -5 2 -6 -4 -17 -2 -25 5 -7 7 -30 22 -51 32 -20
11 -37 22 -37 26 0 5 -10 11 -22 14 -13 3 -36 17 -53 31 -26 21 -27 25 -11 31
11 4 21 1 27 -7 6 -10 9 -11 9 -1 0 18 -28 26 -44 12 -21 -17 -77 13 -70 38 5
13 4 14 -4 4 -8 -12 -13 -12 -31 -1 -11 8 -21 17 -21 21 0 5 -5 8 -11 8 -6 0
-57 30 -114 68 -57 37 -144 93 -193 124 -74 47 -89 61 -87 80 1 13 0 15 -2 6
-5 -22 -23 -24 -23 -4 0 8 -5 18 -12 22 -8 5 -9 2 -5 -9 5 -13 0 -12 -28 5
-31 21 -39 45 -11 35 7 -3 19 -1 27 4 10 6 4 8 -17 5 -17 -2 -36 -6 -41 -9 -6
-4 -28 7 -49 24 -22 17 -52 38 -69 46 -16 9 -40 25 -52 36 -13 11 -23 17 -23
14 0 -4 -36 17 -80 45 -43 29 -112 74 -152 99 -40 25 -86 54 -102 65 -15 10
-43 28 -60 39 -146 91 -245 159 -241 165 3 4 -3 7 -13 6 -9 0 -16 5 -14 12 1
8 -2 11 -7 7 -9 -5 -58 19 -71 36 -3 3 -16 12 -30 19 -43 23 -165 103 -172
114 -4 6 -8 8 -8 3 0 -4 -11 0 -25 9 -14 9 -22 20 -19 25 3 5 -1 6 -9 4 -7 -3
-24 3 -36 14 -13 11 -32 23 -42 26 -11 4 -19 11 -19 16 0 5 -5 9 -11 9 -6 0
-29 13 -52 29 -90 61 -187 121 -197 121 -6 0 -8 5 -5 10 3 6 0 10 -7 10 -7 0
-45 21 -84 48 -40 26 -99 64 -133 85 -38 23 -59 42 -55 49 4 7 3 8 -4 4 -14
-8 -134 63 -127 74 3 4 -2 11 -11 14 -9 4 -13 2 -8 -5 7 -12 -32 11 -82 48
-17 13 -34 23 -39 23 -4 0 -25 14 -48 32 -22 18 -46 33 -53 34 -7 1 -32 16
-56 32 -24 16 -90 60 -148 97 -58 37 -121 77 -140 90 -19 12 -63 40 -97 62
-35 22 -60 43 -55 48 4 4 -1 5 -10 2 -9 -3 -22 1 -29 9 -7 9 -35 27 -61 40
-27 14 -46 29 -43 34 3 5 0 12 -6 16 -8 5 -9 3 -4 -6 5 -8 3 -11 -6 -8 -8 3
-12 12 -11 19 2 8 0 11 -4 7 -9 -9 -85 32 -79 42 3 4 -3 7 -13 6 -9 0 -16 4
-15 10 1 7 -5 11 -15 10 -12 -1 -17 6 -16 22 1 12 -3 22 -8 22 -6 0 -8 -7 -4
-15 8 -21 -8 -19 -29 5 -10 11 -23 20 -28 20 -15 0 -217 133 -217 143 0 4 -4
5 -10 2 -5 -3 -21 5 -35 19 -14 15 -29 26 -34 26 -4 0 -29 14 -55 31 -36 24
-44 34 -34 41 10 7 8 8 -5 4 -10 -3 -32 2 -50 12 -26 14 -135 84 -157 100 -5
4 -17 1902 -12 1902 1 0 20 -11 41 -24z m-27 -2744 c2 -4 48 -36 103 -70 55
-35 143 -91 195 -124 52 -34 120 -77 151 -97 65 -41 265 -169 345 -221 30 -19
103 -66 162 -103 59 -38 148 -95 197 -127 50 -32 128 -82 175 -111 47 -29 87
-56 90 -59 3 -3 52 -35 108 -70 57 -36 147 -93 200 -127 54 -34 122 -77 152
-96 30 -18 116 -73 190 -122 201 -131 235 -153 298 -186 31 -17 93 -55 137
-83 44 -29 129 -84 188 -122 59 -38 167 -107 240 -154 73 -47 152 -98 177
-113 25 -15 135 -86 245 -157 110 -71 243 -156 295 -190 52 -33 102 -64 110
-70 8 -5 53 -35 100 -64 47 -30 161 -104 253 -163 247 -159 352 -226 442 -282
44 -27 94 -59 110 -71 35 -24 178 -116 250 -161 28 -17 64 -40 82 -52 17 -12
88 -58 158 -102 69 -44 173 -110 231 -148 94 -61 107 -66 127 -55 12 7 27 12
32 13 6 0 23 12 39 27 16 15 32 25 37 22 5 -3 9 0 9 6 0 7 7 9 16 6 9 -4 13
-2 8 5 -4 8 1 9 17 4 17 -4 20 -3 10 3 -10 7 -10 11 -1 17 7 4 16 1 22 -6 7
-11 8 -9 6 6 -4 26 46 52 68 35 11 -10 14 -10 14 -1 0 7 4 10 8 7 5 -3 9 2 9
10 0 10 -4 11 -11 4 -12 -12 -26 -13 -26 -2 0 14 69 54 81 46 8 -4 9 -3 5 4
-4 7 4 17 21 24 15 7 30 15 33 18 3 3 21 17 40 30 26 18 31 20 20 6 -14 -18
-14 -18 7 -6 12 8 21 18 20 23 -1 5 4 12 12 15 9 3 11 0 6 -8 -5 -9 -4 -11 3
-6 7 4 12 13 12 21 0 7 6 15 13 17 6 2 70 41 141 88 71 47 135 84 143 82 7 -2
12 2 11 9 -2 6 3 14 11 17 8 2 11 0 7 -6 -3 -6 -1 -14 5 -18 7 -4 9 -3 5 4 -8
14 34 54 51 48 8 -3 10 1 6 11 -5 13 -2 15 11 10 10 -4 15 -3 11 3 -6 10 9 15
30 10 6 -1 7 2 3 6 -11 10 30 37 44 28 7 -4 8 -3 4 5 -4 6 0 14 11 18 10 3 39
22 65 41 26 20 54 37 62 38 8 1 27 14 43 28 15 14 35 26 43 26 13 0 13 -1 0
-11 -13 -9 -13 -10 0 -6 8 2 14 11 12 21 -2 9 2 16 7 16 6 0 31 14 55 32 40
28 47 30 63 17 16 -13 17 -12 4 4 -7 9 -10 17 -5 17 5 0 22 11 38 25 17 14 36
23 43 21 7 -3 13 0 13 7 1 12 73 62 85 58 4 -1 13 6 22 16 8 10 11 12 8 5 -6
-11 -3 -12 14 -3 11 7 21 14 21 17 0 3 -5 2 -12 -2 -7 -4 -8 -3 -4 5 4 6 12 9
17 6 5 -4 31 13 58 35 30 26 54 39 62 34 8 -5 10 -3 4 6 -6 10 -4 12 8 7 10
-4 16 -2 14 6 -1 7 6 11 15 11 10 -1 15 2 13 7 -8 11 33 31 47 23 7 -4 8 -3 4
4 -8 13 28 35 39 24 5 -4 4 -1 0 7 -6 11 -4 13 8 8 11 -4 14 -2 10 9 -3 7 0
14 6 14 6 0 42 20 81 45 39 25 73 45 76 45 2 0 14 8 25 18 10 11 32 25 47 32
15 8 42 25 61 39 19 13 31 18 26 10 -5 -8 4 -1 18 14 25 26 56 30 41 5 -4 -7
-2 -8 4 -4 6 4 9 13 6 20 -6 17 194 145 222 143 13 -1 18 4 16 14 -1 11 13 25
40 39 23 12 53 30 66 41 19 15 28 16 46 8 17 -9 19 -9 9 2 -20 21 3 42 31 27
11 -6 18 -7 14 -3 -9 9 11 49 20 41 3 -4 16 4 29 16 19 17 26 20 32 9 6 -10
10 -9 14 4 4 9 3 13 -3 10 -6 -3 -10 -4 -10 -1 0 3 21 18 48 33 26 15 49 30
52 34 3 3 19 14 35 23 17 9 40 23 52 32 l23 16 0 -940 0 -941 -27 -26 c-15
-14 -32 -25 -36 -25 -5 0 -28 -14 -52 -30 -24 -16 -48 -30 -53 -30 -6 0 -12
-3 -14 -7 -4 -9 -74 -63 -82 -63 -3 0 -33 -18 -67 -40 -34 -22 -66 -37 -72
-33 -6 3 -7 1 -3 -5 3 -6 -3 -16 -14 -22 -11 -6 -20 -8 -20 -4 0 3 -9 -4 -21
-17 -11 -13 -17 -17 -13 -9 4 8 -4 4 -19 -9 -15 -13 -31 -20 -38 -16 -8 5 -10
4 -5 -3 8 -13 -70 -66 -85 -57 -5 4 -8 2 -7 -3 4 -14 -71 -64 -84 -56 -7 5 -8
2 -3 -6 6 -10 4 -12 -9 -7 -10 4 -15 3 -11 -3 8 -12 -56 -52 -73 -45 -7 3 -11
1 -8 -3 5 -8 6 -8 -209 -147 -82 -54 -177 -115 -209 -136 -33 -22 -65 -39 -73
-39 -7 0 -13 -5 -13 -10 0 -6 -4 -9 -9 -8 -5 2 -17 -6 -26 -17 -9 -11 -14 -13
-10 -5 4 8 -2 6 -12 -5 -10 -11 -33 -28 -52 -39 -26 -14 -35 -16 -44 -6 -9 10
-8 12 4 7 9 -3 16 0 16 8 0 10 -5 11 -19 4 -12 -6 -24 -6 -36 0 -14 7 -19 6
-19 -4 0 -7 5 -11 11 -9 7 3 20 -2 31 -11 17 -12 18 -16 6 -24 -10 -6 -22 -6
-35 1 -18 10 -19 9 -8 -4 10 -13 9 -18 -5 -29 -15 -12 -16 -12 -9 1 4 8 -1 5
-10 -7 -17 -24 -61 -33 -48 -10 5 7 1 7 -12 -3 -30 -22 -30 -24 -9 -16 17 6
16 4 -5 -19 -14 -15 -30 -23 -39 -20 -9 3 -12 3 -9 -1 7 -6 -87 -74 -102 -74
-5 0 -22 -12 -39 -26 -17 -14 -36 -22 -42 -18 -8 4 -9 3 -5 -4 4 -7 -10 -20
-35 -33 -23 -11 -51 -29 -62 -39 -11 -11 -34 -26 -51 -34 -17 -9 -49 -28 -72
-43 -23 -16 -60 -40 -82 -55 -23 -15 -48 -25 -56 -22 -7 3 -17 1 -21 -5 -3 -7
0 -8 9 -5 30 12 16 -4 -32 -35 -51 -32 -80 -42 -46 -15 18 14 18 15 -3 4 -13
-6 -22 -15 -20 -21 1 -5 -36 -33 -83 -62 -47 -29 -101 -64 -121 -80 -20 -15
-39 -27 -44 -27 -4 0 -29 -16 -56 -36 -29 -21 -56 -34 -65 -30 -8 3 -13 2 -9
-3 3 -5 -8 -19 -24 -30 -27 -20 -30 -20 -34 -4 -3 13 -5 12 -6 -6 -1 -17 -5
-21 -17 -17 -8 3 -13 2 -10 -3 8 -12 -72 -63 -86 -55 -6 4 -8 3 -4 -4 7 -12
-141 -105 -155 -96 -5 3 -8 0 -7 -8 5 -21 -19 -11 -106 46 -44 30 -155 101
-246 159 -91 58 -225 144 -298 191 -73 47 -137 86 -142 86 -6 0 -10 4 -10 8 0
4 -15 16 -32 26 -18 11 -78 48 -133 84 -55 35 -125 80 -155 99 -30 19 -112 72
-182 117 -69 44 -146 93 -170 108 -89 57 -194 124 -403 259 -55 36 -134 86
-175 113 -41 26 -111 71 -156 99 -44 29 -126 81 -182 117 -56 36 -172 110
-257 165 -85 55 -194 125 -242 156 -48 31 -115 74 -148 95 -33 21 -68 43 -78
49 -9 5 -72 46 -140 89 -67 44 -147 95 -177 115 -52 33 -164 104 -275 176 -27
17 -78 51 -112 73 -35 23 -67 42 -73 42 -7 0 -10 -955 -10 -2910 l0 -2910
-805 0 -805 0 0 4375 c0 2645 4 4375 9 4375 5 0 11 -3 13 -8z m10988 -2782 c0
-11 -3 -19 -7 -17 -5 1 -9 -2 -9 -8 -1 -5 2 -9 7 -7 5 1 9 -1211 9 -2963 l0
-2965 -795 0 -795 0 0 1542 0 1542 -22 21 c-17 16 -19 16 -8 2 12 -17 11 -21
-10 -37 -14 -10 -28 -16 -32 -14 -4 2 -10 -2 -15 -10 -4 -8 -36 -30 -70 -50
-34 -20 -65 -41 -68 -46 -4 -6 -11 -8 -16 -5 -5 4 -9 1 -9 -5 0 -6 -4 -9 -9
-6 -5 3 -12 -1 -15 -10 -4 -9 -9 -14 -13 -11 -3 4 -13 -1 -22 -11 -9 -10 -56
-42 -106 -72 -49 -30 -103 -65 -119 -78 -16 -13 -35 -21 -42 -18 -8 3 -14 -1
-14 -9 0 -8 -4 -15 -8 -15 -5 0 -19 -9 -32 -20 -13 -12 -30 -18 -37 -15 -8 2
-12 1 -9 -3 9 -14 -107 -82 -129 -76 -15 4 -16 3 -6 -4 15 -11 -2 -27 -19 -17
-6 3 -7 -1 -4 -9 4 -10 1 -16 -8 -16 -7 0 -44 -20 -81 -45 -37 -25 -67 -42
-67 -38 0 4 -7 -3 -16 -15 -8 -12 -20 -22 -25 -22 -6 0 -26 -11 -46 -25 -20
-13 -41 -21 -46 -18 -6 3 -7 1 -3 -5 4 -7 -10 -20 -36 -33 -24 -12 -57 -32
-74 -45 -17 -13 -35 -24 -40 -24 -5 0 -22 -11 -38 -25 -16 -13 -33 -22 -39
-18 -6 3 -7 1 -3 -5 4 -7 2 -12 -3 -12 -6 0 -13 0 -16 0 -3 0 -16 -10 -30 -22
-14 -12 -40 -31 -58 -42 -34 -21 -58 -36 -218 -138 -49 -32 -91 -58 -94 -58
-3 0 -25 -16 -51 -35 -25 -19 -51 -35 -57 -35 -6 0 -22 -11 -36 -23 -34 -31
-291 -190 -307 -190 -7 0 -11 -4 -8 -8 7 -12 -35 -31 -52 -25 -9 3 -13 10 -10
14 3 5 -1 9 -9 9 -13 0 -13 -2 -1 -16 10 -11 12 -21 6 -31 -5 -8 -10 -10 -10
-5 0 6 -6 3 -13 -5 -7 -9 -29 -26 -50 -38 -29 -17 -43 -20 -57 -12 -10 5 -22
10 -27 10 -4 -1 3 -7 16 -14 l25 -14 -50 -30 c-56 -35 -142 -90 -223 -144 -92
-60 -94 -62 -86 -46 3 7 0 5 -8 -5 -8 -9 -19 -17 -25 -17 -6 0 -12 -4 -14 -9
-3 -8 -93 -70 -146 -101 -14 -8 -62 -39 -105 -68 -57 -39 -84 -51 -100 -47
-16 5 -18 4 -8 -3 11 -8 4 -16 -30 -37 -24 -16 -67 -43 -95 -60 -41 -26 -54
-31 -70 -22 -17 9 -18 9 -5 -6 12 -15 9 -21 -11 -18 -5 0 -8 -3 -8 -8 0 -14
-119 -83 -132 -75 -6 4 -8 3 -4 -4 3 -6 -7 -20 -24 -32 -16 -12 -30 -18 -30
-13 0 4 -4 3 -8 -3 -8 -13 -258 -176 -267 -175 -3 1 -13 -5 -22 -14 -20 -21
-30 -11 -12 12 9 11 10 14 2 9 -10 -6 -13 179 -13 911 l0 918 66 43 c60 40
101 49 74 17 -8 -10 -8 -15 1 -21 7 -4 9 -3 5 4 -3 6 -2 14 4 17 8 5 8 11 1
19 -8 9 6 23 52 53 34 22 73 46 87 53 13 7 31 19 38 27 8 8 28 17 44 20 16 3
36 16 45 29 8 13 24 26 35 30 11 3 49 26 84 51 35 24 64 41 64 37 0 -4 6 1 14
12 8 10 18 19 23 19 4 0 35 18 68 39 33 22 65 39 72 39 7 0 10 3 8 7 -4 6 87
70 100 70 3 0 11 5 18 10 41 36 169 110 179 104 7 -4 8 -3 4 4 -4 6 6 18 24
27 16 8 30 20 30 25 0 6 6 10 13 10 6 0 34 16 61 35 27 19 51 33 54 31 2 -3
14 4 25 15 13 12 29 17 41 13 15 -4 17 -3 7 4 -11 8 -11 11 0 18 37 24 62 33
72 27 6 -3 7 -1 3 5 -4 7 7 18 26 28 18 9 36 21 39 27 4 5 12 6 19 2 9 -6 9
-9 -1 -16 -8 -5 -9 -9 -3 -9 18 0 24 12 13 26 -9 11 -4 18 21 31 32 18 82 50
224 141 43 28 84 49 90 45 6 -3 8 -3 4 2 -7 7 115 95 131 95 4 0 22 13 41 30
19 16 38 29 43 30 4 0 49 28 100 62 50 34 100 61 110 60 9 0 15 3 12 8 -3 4 7
16 21 25 18 11 24 13 19 4 -5 -8 4 -2 19 13 16 15 32 26 36 23 4 -3 10 2 14
10 3 8 12 15 21 15 8 0 15 4 15 10 0 5 19 19 43 31 23 12 45 26 48 31 3 5 15
10 27 11 11 0 19 4 17 7 -2 3 14 17 36 30 21 14 39 28 39 32 0 5 6 8 13 8 6 0
23 9 37 20 26 21 45 26 35 11 -3 -5 0 -13 6 -17 8 -4 9 -3 5 4 -4 7 -2 12 4
12 6 0 9 4 6 9 -8 12 21 34 34 26 6 -4 9 -3 8 2 -2 4 1 9 5 10 5 1 17 11 26
22 10 11 21 18 25 14 3 -3 6 -1 6 6 0 6 10 15 23 20 18 7 76 43 147 91 60 41
161 105 190 121 19 11 58 36 85 55 28 19 55 32 62 30 8 -3 10 1 6 11 -5 13 -2
15 11 10 9 -4 15 -3 12 2 -3 4 12 17 32 29 20 11 74 45 119 74 45 29 130 84
190 122 59 38 141 91 181 118 39 26 73 46 73 43 1 -3 2 -9 3 -14 0 -5 4 -13 8
-16 4 -4 5 3 3 17 -4 20 5 30 68 68 39 25 94 59 122 77 32 21 57 31 70 27 15
-4 16 -3 6 4 -10 7 4 21 60 57 41 26 120 79 177 117 57 38 107 66 112 63 6 -4
10 -1 10 5 0 10 59 50 77 53 4 0 13 5 19 11 24 22 54 46 60 46 2 0 18 10 33
21 16 12 34 19 39 15 6 -3 14 -1 18 5 4 8 3 9 -4 5 -7 -4 -12 -5 -12 -3 0 11
103 66 112 61 6 -4 8 -3 5 2 -5 8 34 37 169 122 19 12 40 19 46 16 7 -4 8 -2
4 5 -4 6 0 14 11 18 10 4 20 9 23 12 3 4 50 35 105 71 55 35 110 72 122 83 12
11 26 16 32 12 6 -3 11 -1 11 4 0 6 2 11 5 11 3 0 5 -9 5 -20z"/>
<path d="M915 12090 c-3 -6 1 -7 9 -4 18 7 21 14 7 14 -6 0 -13 -4 -16 -10z"/>
<path d="M1030 12020 c-9 -6 -10 -10 -3 -10 6 0 15 5 18 10 8 12 4 12 -15 0z"/>
<path d="M1364 11786 c1 -8 5 -18 8 -22 4 -3 5 1 4 10 -1 8 -5 18 -8 22 -4 3
-5 -1 -4 -10z"/>
<path d="M1422 11795 c4 -5 3 -13 -2 -20 -7 -8 -5 -12 5 -12 8 0 11 5 8 10 -4
6 0 8 10 4 25 -9 21 0 -5 14 -13 6 -20 8 -16 4z"/>
<path d="M2243 11225 c0 -7 6 -11 14 -8 7 3 13 6 13 8 0 2 -6 5 -13 8 -8 3
-14 -1 -14 -8z"/>
<path d="M2405 11151 c-3 -5 -2 -12 3 -15 5 -3 9 1 9 9 0 17 -3 19 -12 6z"/>
<path d="M2885 10829 c1 -10 4 -21 8 -24 4 -3 5 -2 2 1 -2 4 0 14 5 24 6 12 5
17 -4 17 -7 0 -12 -8 -11 -18z"/>
<path d="M3364 10534 c1 -8 4 -15 7 -16 2 -2 3 -1 2 1 -2 2 2 9 7 16 7 8 5 12
-4 12 -8 0 -13 -6 -12 -13z"/>
<path d="M3413 10518 c-13 -22 -11 -34 7 -34 9 0 17 6 17 12 0 7 -7 9 -16 6
-14 -5 -14 -3 -2 11 7 9 11 17 8 17 -3 0 -9 -6 -14 -12z"/>
<path d="M4055 10100 c-3 -5 -1 -10 4 -10 6 0 11 5 11 10 0 6 -2 10 -4 10 -3
0 -8 -4 -11 -10z"/>
<path d="M4091 10054 c0 -11 3 -14 6 -6 3 7 2 16 -1 19 -3 4 -6 -2 -5 -13z"/>
<path d="M1420 9940 c-9 -6 -10 -10 -3 -10 6 0 15 5 18 10 8 12 4 12 -15 0z"/>
<path d="M4360 9896 c0 -2 8 -10 18 -17 15 -13 16 -12 3 4 -13 16 -21 21 -21
13z"/>
<path d="M1560 9886 c0 -2 7 -7 16 -10 8 -3 12 -2 9 4 -6 10 -25 14 -25 6z"/>
<path d="M1669 9828 c-6 -20 -6 -39 0 -42 4 -3 7 6 7 20 0 20 -4 32 -7 22z"/>
<path d="M4644 9716 c1 -8 5 -18 8 -22 4 -3 5 1 4 10 -1 8 -5 18 -8 22 -4 3
-5 -1 -4 -10z"/>
<path d="M1904 9636 c1 -8 5 -18 8 -22 4 -3 5 1 4 10 -1 8 -5 18 -8 22 -4 3
-5 -1 -4 -10z"/>
<path d="M4805 9621 c-9 -15 15 -25 28 -12 9 9 7 10 -7 5 -13 -5 -17 -4 -12 4
4 7 5 12 2 12 -3 0 -7 -4 -11 -9z"/>
<path d="M2030 9556 c0 -2 8 -10 18 -17 15 -13 16 -12 3 4 -13 16 -21 21 -21
13z"/>
<path d="M2255 9430 c-4 -6 -16 -8 -28 -5 -20 5 -20 5 -3 -6 14 -9 21 -8 34 5
9 9 13 16 10 16 -4 0 -10 -5 -13 -10z"/>
<path d="M2305 9400 c2 -27 10 -33 12 -10 1 11 -2 22 -6 24 -4 3 -7 -4 -6 -14z"/>
<path d="M5367 9239 c7 -7 15 -10 18 -7 3 3 -2 9 -12 12 -14 6 -15 5 -6 -5z"/>
<path d="M2865 9030 c-3 -6 1 -7 9 -4 18 7 21 14 7 14 -6 0 -13 -4 -16 -10z"/>
<path d="M5769 8998 c-9 -30 -6 -37 12 -28 23 13 25 22 2 13 -11 -4 -14 -3 -9
5 4 7 5 12 2 12 -3 0 -6 -1 -7 -2z"/>
<path d="M5910 8906 c0 -2 7 -7 16 -10 8 -3 12 -2 9 4 -6 10 -25 14 -25 6z"/>
<path d="M6009 8848 c-6 -20 -6 -39 0 -42 4 -3 7 6 7 20 0 20 -4 32 -7 22z"/>
<path d="M3260 8771 c0 -6 4 -13 10 -16 6 -3 7 1 4 9 -7 18 -14 21 -14 7z"/>
<path d="M3422 8701 c-11 -7 -11 -9 0 -14 9 -3 15 1 15 9 0 8 -1 14 -1 14 -1
0 -7 -4 -14 -9z"/>
<path d="M6240 8706 c0 -2 7 -9 15 -16 9 -7 15 -8 15 -2 0 5 -7 12 -15 16 -8
3 -15 4 -15 2z"/>
<path d="M3788 8453 c7 -3 16 -2 19 1 4 3 -2 6 -13 5 -11 0 -14 -3 -6 -6z"/>
<path d="M3886 8363 c-6 -14 -5 -15 5 -6 7 7 10 15 7 18 -3 3 -9 -2 -12 -12z"/>
<path d="M4247 8147 c4 -6 0 -8 -10 -4 -25 9 -21 0 6 -14 12 -6 19 -8 15 -4
-4 5 -3 13 2 20 7 8 5 12 -5 12 -8 0 -11 -5 -8 -10z"/>
<path d="M4305 8111 c-3 -5 -2 -12 3 -15 5 -3 9 1 9 9 0 17 -3 19 -12 6z"/>
<path d="M4745 7827 c-14 -11 -15 -16 -5 -22 9 -5 11 -4 6 3 -8 14 3 15 23 3
8 -5 10 -14 6 -21 -5 -8 -4 -11 3 -6 17 10 11 45 -7 38 -9 -3 -12 -1 -7 6 9
16 4 15 -19 -1z"/>
<path d="M5483 7335 c0 -8 4 -12 9 -9 5 3 6 10 3 15 -9 13 -12 11 -12 -6z"/>
<path d="M5580 7276 c0 -2 8 -10 18 -17 15 -13 16 -12 3 4 -13 16 -21 21 -21
13z"/>
<path d="M5642 7271 c-11 -7 -11 -9 0 -14 9 -3 15 1 15 9 0 8 -1 14 -1 14 -1
0 -7 -4 -14 -9z"/>
<path d="M5743 7178 c0 -13 1 -17 4 -10 3 6 10 9 16 5 7 -4 6 1 -2 10 -17 21
-17 21 -18 -5z"/>
<path d="M5760 7156 c0 -2 7 -7 16 -10 8 -3 12 -2 9 4 -6 10 -25 14 -25 6z"/>
<path d="M5865 7099 c-3 -4 2 -6 10 -5 21 3 28 13 10 13 -9 0 -18 -4 -20 -8z"/>
<path d="M6366 6772 c-3 -5 1 -9 9 -9 8 0 12 4 9 9 -3 4 -7 8 -9 8 -2 0 -6 -4
-9 -8z"/>
<path d="M9034 7538 c-6 -10 -7 -10 42 -12 23 -1 41 3 41 9 0 12 -76 14 -83 3z"/>
<path d="M8440 7139 c0 -4 6 -9 13 -12 8 -3 14 0 14 7 0 7 -6 13 -14 13 -7 0
-13 -4 -13 -8z"/>
<path d="M8338 7063 c7 -3 16 -2 19 1 4 3 -2 6 -13 5 -11 0 -14 -3 -6 -6z"/>
<path d="M7960 6846 c7 -7 13 -7 20 0 6 6 3 10 -10 10 -13 0 -16 -4 -10 -10z"/>
<path d="M7920 6823 c0 -1 8 -7 18 -12 13 -7 19 -6 19 2 0 7 -9 13 -19 13 -10
0 -18 -1 -18 -3z"/>
<path d="M7975 6821 c-3 -5 -2 -12 3 -15 5 -3 9 1 9 9 0 17 -3 19 -12 6z"/>
<path d="M7573 6603 c-7 -3 -13 -10 -13 -15 0 -6 3 -8 7 -5 3 4 12 2 19 -4 9
-7 12 -6 10 5 -3 20 -8 24 -23 19z"/>
<path d="M7526 6582 c-3 -5 1 -9 9 -9 8 0 12 4 9 9 -3 4 -7 8 -9 8 -2 0 -6 -4
-9 -8z"/>
<path d="M7305 6420 c-16 -7 -17 -9 -3 -9 9 -1 20 4 23 9 7 11 7 11 -20 0z"/>
<path d="M7156 6341 c-3 -5 5 -8 18 -7 13 0 22 4 19 9 -6 10 -31 9 -37 -2z"/>
<path d="M6588 5933 c7 -3 16 -2 19 1 4 3 -2 6 -13 5 -11 0 -14 -3 -6 -6z"/>
<path d="M6426 5872 c-2 -4 4 -8 14 -8 10 0 16 4 14 8 -3 4 -9 8 -14 8 -5 0
-11 -4 -14 -8z"/>
<path d="M8860 5590 c-9 -6 -10 -10 -3 -10 6 0 15 5 18 10 8 12 4 12 -15 0z"/>
<path d="M8805 5570 c-3 -6 1 -7 9 -4 18 7 21 14 7 14 -6 0 -13 -4 -16 -10z"/>
<path d="M8160 5181 c0 -10 19 -25 25 -20 1 2 -3 10 -11 17 -8 7 -14 8 -14 3z"/>
<path d="M6979 4369 l-24 -20 28 17 c15 9 27 18 27 20 0 8 -8 4 -31 -17z"/>
<path d="M11818 6553 c19 -8 14 -26 -5 -18 -15 5 -16 4 -5 -6 9 -10 15 -10 23
-2 13 13 4 33 -14 32 -9 0 -9 -2 1 -6z"/>
<path d="M11507 6339 c7 -7 15 -10 18 -7 3 3 -2 9 -12 12 -14 6 -15 5 -6 -5z"/>
<path d="M10995 6030 c3 -6 1 -10 -6 -10 -7 0 -10 -3 -6 -6 3 -3 13 -2 22 4
16 8 16 9 1 15 -10 4 -15 3 -11 -3z"/>
<path d="M10920 5980 c-9 -6 -10 -10 -3 -10 6 0 15 5 18 10 8 12 4 12 -15 0z"/>
<path d="M10776 5881 c-4 -5 -2 -12 3 -15 5 -4 12 -2 15 3 4 5 2 12 -3 15 -5
4 -12 2 -15 -3z"/>
<path d="M10680 5830 c-9 -6 -10 -10 -3 -10 6 0 15 5 18 10 8 12 4 12 -15 0z"/>
<path d="M9904 5306 c1 -8 5 -18 8 -22 4 -3 5 1 4 10 -1 8 -5 18 -8 22 -4 3
-5 -1 -4 -10z"/>
<path d="M9870 5300 c-9 -6 -10 -10 -3 -10 6 0 15 5 18 10 8 12 4 12 -15 0z"/>
<path d="M9263 4923 c4 -3 1 -13 -6 -22 -11 -14 -10 -14 5 -2 16 12 16 31 1
31 -4 0 -3 -3 0 -7z"/>
<path d="M9154 4849 c-4 -8 -3 -9 4 -5 15 9 16 -6 1 -21 -8 -8 -8 -13 0 -18 6
-3 10 -2 9 4 -2 5 4 16 12 23 8 7 13 12 11 11 -2 -2 -10 2 -17 8 -8 7 -14 6
-20 -2z"/>
<path d="M8840 4656 c0 -2 7 -7 16 -10 8 -3 12 -2 9 4 -6 10 -25 14 -25 6z"/>
<path d="M8890 4650 c-8 -5 -10 -10 -5 -10 6 0 17 5 25 10 8 5 11 10 5 10 -5
0 -17 -5 -25 -10z"/>
<path d="M8783 4585 c0 -8 4 -12 9 -9 5 3 6 10 3 15 -9 13 -12 11 -12 -6z"/>
<path d="M8669 4513 c-13 -16 -12 -17 4 -4 16 13 21 21 13 21 -2 0 -10 -8 -17
-17z"/>
<path d="M8300 4270 c-9 -6 -10 -10 -3 -10 6 0 15 5 18 10 8 12 4 12 -15 0z"/>
<path d="M8136 4182 c-3 -5 1 -9 9 -9 8 0 12 4 9 9 -3 4 -7 8 -9 8 -2 0 -6 -4
-9 -8z"/>
<path d="M7630 3876 c0 -2 8 -10 18 -17 15 -13 16 -12 3 4 -13 16 -21 21 -21
13z"/>
<path d="M7545 3820 c-4 -7 -2 -17 4 -23 9 -9 11 -8 6 6 -7 18 10 24 18 7 3
-6 4 -5 3 2 -3 16 -23 21 -31 8z"/>
<path d="M9931 3534 c0 -11 3 -14 6 -6 3 7 2 16 -1 19 -3 4 -6 -2 -5 -13z"/>
<path d="M6740 3296 c0 -2 7 -6 15 -10 8 -3 15 -1 15 4 0 6 -7 10 -15 10 -8 0
-15 -2 -15 -4z"/>
<path d="M6676 3261 c-3 -5 1 -12 10 -15 22 -8 25 -4 9 11 -8 7 -16 9 -19 4z"/>
<path d="M6502 3151 c-11 -7 -11 -9 0 -14 9 -3 15 1 15 9 0 8 -1 14 -1 14 -1
0 -7 -4 -14 -9z"/>
<path d="M9275 3111 c-3 -5 -2 -12 3 -15 5 -3 9 1 9 9 0 17 -3 19 -12 6z"/>
<path d="M9133 3015 c0 -8 4 -12 9 -9 5 3 6 10 3 15 -9 13 -12 11 -12 -6z"/>
<path d="M8726 2751 c-4 -5 -2 -12 3 -15 5 -4 12 -2 15 3 4 5 2 12 -3 15 -5 4
-12 2 -15 -3z"/>
<path d="M8521 2624 c0 -11 3 -14 6 -6 3 7 2 16 -1 19 -3 4 -6 -2 -5 -13z"/>
<path d="M8246 2463 c-6 -14 -5 -15 5 -6 7 7 10 15 7 18 -3 3 -9 -2 -12 -12z"/>
<path d="M7885 2220 c-3 -6 1 -7 9 -4 18 7 21 14 7 14 -6 0 -13 -4 -16 -10z"/>
<path d="M7843 2175 c0 -7 6 -11 14 -8 7 3 13 6 13 8 0 2 -6 5 -13 8 -8 3 -14
-1 -14 -8z"/>
<path d="M7767 2139 c7 -7 15 -10 18 -7 3 3 -2 9 -12 12 -14 6 -15 5 -6 -5z"/>
<path d="M7652 2061 c-11 -7 -11 -9 0 -14 9 -3 15 1 15 9 0 8 -1 14 -1 14 -1
0 -7 -4 -14 -9z"/>
<path d="M7207 1809 c7 -7 15 -10 18 -7 3 3 -2 9 -12 12 -14 6 -15 5 -6 -5z"/>
<path d="M7250 1810 c8 -5 20 -10 25 -10 6 0 3 5 -5 10 -8 5 -19 10 -25 10 -5
0 -3 -5 5 -10z"/>
<path d="M7225 1780 c-3 -6 1 -7 9 -4 18 7 21 14 7 14 -6 0 -13 -4 -16 -10z"/>
<path d="M7125 1748 c-5 -7 -5 -10 0 -6 4 4 14 3 20 -2 9 -7 17 -5 26 7 12 16
12 17 -2 6 -11 -9 -19 -9 -26 -2 -8 8 -13 7 -18 -3z"/>
<path d="M6610 1416 c0 -2 9 -6 20 -9 11 -3 18 -1 14 4 -5 9 -34 13 -34 5z"/>
</g>
</svg>
